<svg width="348" height="52" viewBox="0 0 348 52" fill="none" xmlns="http://www.w3.org/2000/svg">
<g clip-path="url(#clip0_1_11)">
<path d="M19.0872 10.5C23.3211 3.16666 33.9058 3.16667 38.1397 10.5L48.1973 27.9202C52.4312 35.2535 47.1388 44.4202 38.671 44.4202H18.5559C10.0881 44.4202 4.79572 35.2535 9.02963 27.9202L19.0872 10.5Z" fill="#099FE0"/>
<path d="M25.1376 10.5C29.3715 3.16666 39.9562 3.16667 44.1901 10.5L54.2477 27.9202C58.4816 35.2535 53.1892 44.4202 44.7214 44.4202H24.6063C16.1385 44.4202 10.8461 35.2535 15.08 27.9202L25.1376 10.5Z" fill="#0889C0"/>
<path d="M31.8603 10.5C36.0942 3.16666 46.6789 3.16667 50.9128 10.5L60.9704 27.9202C65.2043 35.2535 59.9119 44.4202 51.4441 44.4202H31.329C22.8612 44.4202 17.5688 35.2535 21.8027 27.9202L31.8603 10.5Z" fill="#096B95"/>
<path d="M103.98 40H96.798L84.786 21.814V40H77.604V10.516H84.786L96.798 28.786V10.516H103.98V40ZM116.368 16.27V22.234H125.986V27.778H116.368V34.246H127.246V40H109.186V10.516H127.246V16.27H116.368ZM149.969 40L143.963 30.97L138.671 40H130.523L139.973 25.006L130.313 10.516H138.671L144.593 19.42L149.801 10.516H157.949L148.583 25.384L158.327 40H149.969ZM183.142 10.516V16.27H175.33V40H168.148V16.27H160.336V10.516H183.142Z" fill="#0590CC"/>
<path d="M206.315 40.294C204.159 40.294 202.227 39.944 200.519 39.244C198.811 38.544 197.439 37.508 196.403 36.136C195.395 34.764 194.863 33.112 194.807 31.18H202.451C202.563 32.272 202.941 33.112 203.585 33.7C204.229 34.26 205.069 34.54 206.105 34.54C207.169 34.54 208.009 34.302 208.625 33.826C209.241 33.322 209.549 32.636 209.549 31.768C209.549 31.04 209.297 30.438 208.793 29.962C208.317 29.486 207.715 29.094 206.987 28.786C206.287 28.478 205.279 28.128 203.963 27.736C202.059 27.148 200.505 26.56 199.301 25.972C198.097 25.384 197.061 24.516 196.193 23.368C195.325 22.22 194.891 20.722 194.891 18.874C194.891 16.13 195.885 13.988 197.873 12.448C199.861 10.88 202.451 10.096 205.643 10.096C208.891 10.096 211.509 10.88 213.497 12.448C215.485 13.988 216.549 16.144 216.689 18.916H208.919C208.863 17.964 208.513 17.222 207.869 16.69C207.225 16.13 206.399 15.85 205.391 15.85C204.523 15.85 203.823 16.088 203.291 16.564C202.759 17.012 202.493 17.67 202.493 18.538C202.493 19.49 202.941 20.232 203.837 20.764C204.733 21.296 206.133 21.87 208.037 22.486C209.941 23.13 211.481 23.746 212.657 24.334C213.861 24.922 214.897 25.776 215.765 26.896C216.633 28.016 217.067 29.458 217.067 31.222C217.067 32.902 216.633 34.428 215.765 35.8C214.925 37.172 213.693 38.264 212.069 39.076C210.445 39.888 208.527 40.294 206.315 40.294ZM242.697 10.516V16.27H234.885V40H227.703V16.27H219.891V10.516H242.697ZM260.245 40.294C257.473 40.294 254.925 39.65 252.601 38.362C250.305 37.074 248.471 35.282 247.099 32.986C245.755 30.662 245.083 28.058 245.083 25.174C245.083 22.29 245.755 19.7 247.099 17.404C248.471 15.108 250.305 13.316 252.601 12.028C254.925 10.74 257.473 10.096 260.245 10.096C263.017 10.096 265.551 10.74 267.847 12.028C270.171 13.316 271.991 15.108 273.307 17.404C274.651 19.7 275.323 22.29 275.323 25.174C275.323 28.058 274.651 30.662 273.307 32.986C271.963 35.282 270.143 37.074 267.847 38.362C265.551 39.65 263.017 40.294 260.245 40.294ZM260.245 33.742C262.597 33.742 264.473 32.958 265.873 31.39C267.301 29.822 268.015 27.75 268.015 25.174C268.015 22.57 267.301 20.498 265.873 18.958C264.473 17.39 262.597 16.606 260.245 16.606C257.865 16.606 255.961 17.376 254.533 18.916C253.133 20.456 252.433 22.542 252.433 25.174C252.433 27.778 253.133 29.864 254.533 31.432C255.961 32.972 257.865 33.742 260.245 33.742ZM294.355 40L288.223 28.87H286.501V40H279.319V10.516H291.373C293.697 10.516 295.671 10.922 297.295 11.734C298.947 12.546 300.179 13.666 300.991 15.094C301.803 16.494 302.209 18.062 302.209 19.798C302.209 21.758 301.649 23.508 300.529 25.048C299.437 26.588 297.813 27.68 295.657 28.324L302.461 40H294.355ZM286.501 23.788H290.953C292.269 23.788 293.249 23.466 293.893 22.822C294.565 22.178 294.901 21.268 294.901 20.092C294.901 18.972 294.565 18.09 293.893 17.446C293.249 16.802 292.269 16.48 290.953 16.48H286.501V23.788ZM313.899 16.27V22.234H323.517V27.778H313.899V34.246H324.777V40H306.717V10.516H324.777V16.27H313.899Z" fill="url(#paint0_linear_1_11)"/>
</g>
<defs>
<linearGradient id="paint0_linear_1_11" x1="24" y1="-36" x2="350" y2="61" gradientUnits="userSpaceOnUse">
<stop stop-color="#811168"/>
<stop offset="1" stop-color="#720F5C"/>
</linearGradient>
<clipPath id="clip0_1_11">
<rect width="348" height="52" fill="white"/>
</clipPath>
</defs>
</svg>
