<svg width="48" height="48" viewBox="0 0 48 48" fill="none" xmlns="http://www.w3.org/2000/svg">
<g clip-path="url(#clip0_1_13)">
<path d="M9.20024 12.1227C13.1651 3.70668 25.1374 3.70668 29.1023 12.1227L36.1403 27.062C39.5775 34.3581 34.2544 42.75 26.1892 42.75H12.1133C4.04809 42.75 -1.27497 34.3581 2.16224 27.062L9.20024 12.1227Z" fill="#099FE0"/>
<path d="M14.2675 12.1227C18.2323 3.70668 30.2047 3.70668 34.1695 12.1227L41.2075 27.062C44.6447 34.3581 39.3217 42.75 31.2565 42.75H17.1805C9.11532 42.75 3.79226 34.3581 7.22948 27.062L14.2675 12.1227Z" fill="#0889C0"/>
<path d="M19.8977 12.1227C23.8625 3.70668 35.8349 3.70668 39.7997 12.1227L46.8377 27.062C50.275 34.3581 44.9519 42.75 36.8867 42.75H22.8107C14.7456 42.75 9.42249 34.3581 12.8597 27.062L19.8977 12.1227Z" fill="#096B95"/>
</g>
<defs>
<clipPath id="clip0_1_13">
<rect width="48" height="48" fill="white"/>
</clipPath>
</defs>
</svg>
